<mxfile host="app.diagrams.net" modified="2022-12-06T17:15:54.479Z" agent="5.0 (Windows NT 10.0; Win64; x64) AppleWebKit/537.36 (KHTML, like Gecko) Chrome/107.0.0.0 Safari/537.36" version="20.6.0" etag="17oJpxv5uc-jTHtSFOzj" type="github">
  <diagram id="sRHntWn6UifmPmODb7vL" name="Página-1">
    <mxGraphModel dx="868" dy="450" grid="1" gridSize="10" guides="1" tooltips="1" connect="1" arrows="1" fold="1" page="1" pageScale="1" pageWidth="827" pageHeight="1169" math="0" shadow="0">
      <root>
        <mxCell id="0" />
        <mxCell id="1" parent="0" />
        <mxCell id="TnwWUjTkS6XDz0jDpkqd-3" value="" style="edgeStyle=orthogonalEdgeStyle;rounded=0;orthogonalLoop=1;jettySize=auto;html=1;fontSize=18;" edge="1" parent="1" source="TnwWUjTkS6XDz0jDpkqd-1" target="TnwWUjTkS6XDz0jDpkqd-2">
          <mxGeometry relative="1" as="geometry" />
        </mxCell>
        <mxCell id="TnwWUjTkS6XDz0jDpkqd-1" value="&lt;b&gt;&lt;font style=&quot;font-size: 18px;&quot;&gt;Início&lt;/font&gt;&lt;/b&gt;" style="ellipse;whiteSpace=wrap;html=1;" vertex="1" parent="1">
          <mxGeometry x="120" y="20" width="120" height="80" as="geometry" />
        </mxCell>
        <mxCell id="TnwWUjTkS6XDz0jDpkqd-5" value="" style="edgeStyle=orthogonalEdgeStyle;rounded=0;orthogonalLoop=1;jettySize=auto;html=1;fontSize=18;" edge="1" parent="1" source="TnwWUjTkS6XDz0jDpkqd-2" target="TnwWUjTkS6XDz0jDpkqd-4">
          <mxGeometry relative="1" as="geometry" />
        </mxCell>
        <mxCell id="TnwWUjTkS6XDz0jDpkqd-2" value="Informe a primeira nota" style="shape=step;perimeter=stepPerimeter;whiteSpace=wrap;html=1;fixedSize=1;" vertex="1" parent="1">
          <mxGeometry x="120" y="150" width="190" height="80" as="geometry" />
        </mxCell>
        <mxCell id="TnwWUjTkS6XDz0jDpkqd-7" value="" style="edgeStyle=orthogonalEdgeStyle;rounded=0;orthogonalLoop=1;jettySize=auto;html=1;fontSize=18;" edge="1" parent="1" source="TnwWUjTkS6XDz0jDpkqd-4" target="TnwWUjTkS6XDz0jDpkqd-6">
          <mxGeometry relative="1" as="geometry" />
        </mxCell>
        <mxCell id="TnwWUjTkS6XDz0jDpkqd-4" value="NOTA 1:&lt;br&gt;7" style="shape=parallelogram;perimeter=parallelogramPerimeter;whiteSpace=wrap;html=1;fixedSize=1;" vertex="1" parent="1">
          <mxGeometry x="155" y="290" width="120" height="70" as="geometry" />
        </mxCell>
        <mxCell id="TnwWUjTkS6XDz0jDpkqd-9" value="" style="edgeStyle=orthogonalEdgeStyle;rounded=0;orthogonalLoop=1;jettySize=auto;html=1;fontSize=18;" edge="1" parent="1" source="TnwWUjTkS6XDz0jDpkqd-6" target="TnwWUjTkS6XDz0jDpkqd-8">
          <mxGeometry relative="1" as="geometry" />
        </mxCell>
        <mxCell id="TnwWUjTkS6XDz0jDpkqd-6" value="Informe a segunda nota" style="shape=step;perimeter=stepPerimeter;whiteSpace=wrap;html=1;fixedSize=1;" vertex="1" parent="1">
          <mxGeometry x="350" y="280" width="180" height="80" as="geometry" />
        </mxCell>
        <mxCell id="TnwWUjTkS6XDz0jDpkqd-11" value="" style="edgeStyle=orthogonalEdgeStyle;rounded=0;orthogonalLoop=1;jettySize=auto;html=1;fontSize=18;" edge="1" parent="1" source="TnwWUjTkS6XDz0jDpkqd-8" target="TnwWUjTkS6XDz0jDpkqd-10">
          <mxGeometry relative="1" as="geometry" />
        </mxCell>
        <mxCell id="TnwWUjTkS6XDz0jDpkqd-8" value="NOTA 2:&lt;br&gt;8" style="shape=parallelogram;perimeter=parallelogramPerimeter;whiteSpace=wrap;html=1;fixedSize=1;" vertex="1" parent="1">
          <mxGeometry x="380" y="160" width="120" height="60" as="geometry" />
        </mxCell>
        <mxCell id="TnwWUjTkS6XDz0jDpkqd-13" value="" style="edgeStyle=orthogonalEdgeStyle;rounded=0;orthogonalLoop=1;jettySize=auto;html=1;fontSize=18;" edge="1" parent="1" source="TnwWUjTkS6XDz0jDpkqd-10" target="TnwWUjTkS6XDz0jDpkqd-12">
          <mxGeometry relative="1" as="geometry" />
        </mxCell>
        <mxCell id="TnwWUjTkS6XDz0jDpkqd-10" value="Informe a terceira nota" style="shape=step;perimeter=stepPerimeter;whiteSpace=wrap;html=1;fixedSize=1;" vertex="1" parent="1">
          <mxGeometry x="380" y="10" width="160" height="80" as="geometry" />
        </mxCell>
        <mxCell id="TnwWUjTkS6XDz0jDpkqd-15" value="" style="edgeStyle=orthogonalEdgeStyle;rounded=0;orthogonalLoop=1;jettySize=auto;html=1;fontSize=18;" edge="1" parent="1" source="TnwWUjTkS6XDz0jDpkqd-12" target="TnwWUjTkS6XDz0jDpkqd-14">
          <mxGeometry relative="1" as="geometry" />
        </mxCell>
        <mxCell id="TnwWUjTkS6XDz0jDpkqd-12" value="MÉDIA= (NOTA 1&amp;nbsp;&lt;br&gt;+NOTA 2+NOTA 3)/3" style="whiteSpace=wrap;html=1;" vertex="1" parent="1">
          <mxGeometry x="640" y="20" width="120" height="70" as="geometry" />
        </mxCell>
        <mxCell id="TnwWUjTkS6XDz0jDpkqd-17" value="" style="edgeStyle=orthogonalEdgeStyle;rounded=0;orthogonalLoop=1;jettySize=auto;html=1;fontSize=18;" edge="1" parent="1" source="TnwWUjTkS6XDz0jDpkqd-14" target="TnwWUjTkS6XDz0jDpkqd-16">
          <mxGeometry relative="1" as="geometry" />
        </mxCell>
        <mxCell id="TnwWUjTkS6XDz0jDpkqd-14" value="MÉDIA" style="shape=step;perimeter=stepPerimeter;whiteSpace=wrap;html=1;fixedSize=1;" vertex="1" parent="1">
          <mxGeometry x="640" y="165" width="120" height="80" as="geometry" />
        </mxCell>
        <mxCell id="TnwWUjTkS6XDz0jDpkqd-19" value="" style="edgeStyle=orthogonalEdgeStyle;rounded=0;orthogonalLoop=1;jettySize=auto;html=1;fontSize=18;" edge="1" parent="1" source="TnwWUjTkS6XDz0jDpkqd-16" target="TnwWUjTkS6XDz0jDpkqd-18">
          <mxGeometry relative="1" as="geometry">
            <Array as="points">
              <mxPoint x="690" y="430" />
              <mxPoint x="690" y="430" />
            </Array>
          </mxGeometry>
        </mxCell>
        <mxCell id="TnwWUjTkS6XDz0jDpkqd-22" value="" style="edgeStyle=orthogonalEdgeStyle;rounded=0;orthogonalLoop=1;jettySize=auto;html=1;fontSize=18;" edge="1" parent="1" source="TnwWUjTkS6XDz0jDpkqd-16" target="TnwWUjTkS6XDz0jDpkqd-21">
          <mxGeometry relative="1" as="geometry" />
        </mxCell>
        <mxCell id="TnwWUjTkS6XDz0jDpkqd-16" value="MÉDIA É MAIOR OU IGUAL A 7" style="rhombus;whiteSpace=wrap;html=1;" vertex="1" parent="1">
          <mxGeometry x="620" y="270" width="140" height="130" as="geometry" />
        </mxCell>
        <mxCell id="TnwWUjTkS6XDz0jDpkqd-28" value="" style="edgeStyle=orthogonalEdgeStyle;rounded=0;orthogonalLoop=1;jettySize=auto;html=1;fontSize=12;" edge="1" parent="1" source="TnwWUjTkS6XDz0jDpkqd-18" target="TnwWUjTkS6XDz0jDpkqd-26">
          <mxGeometry relative="1" as="geometry" />
        </mxCell>
        <mxCell id="TnwWUjTkS6XDz0jDpkqd-18" value="APROVADO" style="rounded=1;whiteSpace=wrap;html=1;" vertex="1" parent="1">
          <mxGeometry x="630" y="450" width="120" height="50" as="geometry" />
        </mxCell>
        <mxCell id="TnwWUjTkS6XDz0jDpkqd-20" value="SIM" style="text;html=1;align=center;verticalAlign=middle;resizable=0;points=[];autosize=1;strokeColor=none;fillColor=none;fontSize=18;" vertex="1" parent="1">
          <mxGeometry x="680" y="410" width="60" height="40" as="geometry" />
        </mxCell>
        <mxCell id="TnwWUjTkS6XDz0jDpkqd-27" value="" style="edgeStyle=orthogonalEdgeStyle;rounded=0;orthogonalLoop=1;jettySize=auto;html=1;fontSize=12;" edge="1" parent="1" source="TnwWUjTkS6XDz0jDpkqd-21" target="TnwWUjTkS6XDz0jDpkqd-26">
          <mxGeometry relative="1" as="geometry" />
        </mxCell>
        <mxCell id="TnwWUjTkS6XDz0jDpkqd-21" value="REPROVADO" style="rounded=1;whiteSpace=wrap;html=1;" vertex="1" parent="1">
          <mxGeometry x="850" y="305" width="120" height="60" as="geometry" />
        </mxCell>
        <mxCell id="TnwWUjTkS6XDz0jDpkqd-23" value="NÃO" style="text;html=1;align=center;verticalAlign=middle;resizable=0;points=[];autosize=1;strokeColor=none;fillColor=none;fontSize=18;" vertex="1" parent="1">
          <mxGeometry x="760" y="300" width="60" height="40" as="geometry" />
        </mxCell>
        <mxCell id="TnwWUjTkS6XDz0jDpkqd-24" value="&lt;font style=&quot;font-size: 12px;&quot;&gt;MÉDIA É MAIOR OU IGUAL A 7&lt;/font&gt;" style="rhombus;whiteSpace=wrap;html=1;fontSize=18;" vertex="1" parent="1">
          <mxGeometry x="620" y="270" width="140" height="130" as="geometry" />
        </mxCell>
        <mxCell id="TnwWUjTkS6XDz0jDpkqd-26" value="&lt;b&gt;&lt;font style=&quot;font-size: 18px;&quot;&gt;FIM&lt;/font&gt;&lt;/b&gt;" style="ellipse;whiteSpace=wrap;html=1;rounded=1;" vertex="1" parent="1">
          <mxGeometry x="850" y="445" width="120" height="60" as="geometry" />
        </mxCell>
      </root>
    </mxGraphModel>
  </diagram>
</mxfile>
